<?xml version="1.0" encoding="utf-8"?>
<!-- Generator: Adobe Illustrator 23.0.1, SVG Export Plug-In . SVG Version: 6.00 Build 0)  -->
<svg version="1.1" id="图层_1" xmlns="http://www.w3.org/2000/svg" xmlns:xlink="http://www.w3.org/1999/xlink" x="0px" y="0px"
	 viewBox="0 0 168 32" style="enable-background:new 0 0 168 32;" xml:space="preserve">
<style type="text/css">
	.st0{fill:url(#SVGID_1_);}
	.st1{fill:url(#SVGID_2_);}
	.st2{fill:#FCCF00;}
	.st3{fill:#B7D100;}
	.st4{fill:url(#SVGID_3_);}
	.st5{fill:#00B3EC;}
	.st6{fill:#1E8E3E;}
</style>
<g>
	<linearGradient id="SVGID_1_" gradientUnits="userSpaceOnUse" x1="16.6954" y1="13.256" x2="22.5931" y2="6.2273">
		<stop  offset="0" style="stop-color:#006934"/>
		<stop  offset="0.1132" style="stop-color:#047D43"/>
		<stop  offset="0.2764" style="stop-color:#089253"/>
		<stop  offset="0.4586" style="stop-color:#0BA15E"/>
		<stop  offset="0.6731" style="stop-color:#0CA965"/>
		<stop  offset="1" style="stop-color:#0DAC67"/>
	</linearGradient>
	<path class="st0" d="M22.7,6.3c-4.9,4.5-9.2,4.3-9.2,4.3l3.3,2.1c0.5,0.3,1.3,0.7,2.3,0.3c2.4-0.8,4.6-2.3,6-3.4
		C24.5,8.4,23.7,7.3,22.7,6.3z"/>
	<linearGradient id="SVGID_2_" gradientUnits="userSpaceOnUse" x1="11.8526" y1="8.9996" x2="16.0281" y2="1.7674">
		<stop  offset="0" style="stop-color:#E95513"/>
		<stop  offset="1.909441e-02" style="stop-color:#EA5B11"/>
		<stop  offset="0.1053" style="stop-color:#ED710B"/>
		<stop  offset="0.207" style="stop-color:#EF8206"/>
		<stop  offset="0.333" style="stop-color:#F18D03"/>
		<stop  offset="0.5096" style="stop-color:#F29401"/>
		<stop  offset="1" style="stop-color:#F29600"/>
	</linearGradient>
	<path class="st1" d="M16.7,2.5c-4.8,3.6-9,3.8-9,3.8L11,8.5c0.5,0.3,1.3,0.4,2.3,0c3.1-1.1,5.8-3.2,7-4.2C19.2,3.5,18,2.9,16.7,2.5
		z"/>
	<path class="st2" d="M7,5.8C6.6,5.6,5.8,5.4,4.9,5.7c-0.1,0-0.2,0.1-0.3,0.1l0.7,3.6C8,8,9.3,7.7,10.5,8.1C10.5,8.1,8.2,6.6,7,5.8z
		"/>
	<path class="st3" d="M13.1,10.2c-0.8-0.6-1.8-0.4-3-0.1c-0.7,0.2-2.5,1-4.2,2.1l0.7,3.8c2.2-1.5,5.1-2.9,6.8-3.4
		c1.7-0.5,2.6-0.3,3.5,0C16.8,12.7,14,10.8,13.1,10.2z"/>
	<linearGradient id="SVGID_3_" gradientUnits="userSpaceOnUse" x1="21.2982" y1="17.5835" x2="26.7654" y2="12.9959">
		<stop  offset="0" style="stop-color:#005BAB"/>
		<stop  offset="8.652252e-02" style="stop-color:#0063B1"/>
		<stop  offset="0.296" style="stop-color:#0071BB"/>
		<stop  offset="0.5541" style="stop-color:#007AC0"/>
		<stop  offset="1" style="stop-color:#007CC2"/>
	</linearGradient>
	<path class="st4" d="M26.3,12.5c-3.5,2.7-6.8,3-6.8,3l3.1,2c0.5,0.3,1.5,0.4,2.5,0.1c0.5-0.2,1.3-0.6,1.9-1
		C26.9,15.1,26.7,13.7,26.3,12.5z"/>
	<path class="st3" d="M4.1,27L3,6.9C2.7,7.1,2.4,7.4,2.2,7.5v21.5C2.8,28.3,3.5,27.7,4.1,27z"/>
	<path class="st5" d="M5.9,25.3L3.8,6.3C3.5,6.5,3.2,6.7,3,6.9L4.1,27C4.7,26.4,5.4,25.8,5.9,25.3z"/>
	<path class="st5" d="M10.5,21.7c3.3-2.3,9.1-4.9,12.2-4.3c0,0-2.8-1.9-3.8-2.4c-1.1-0.6-2.2-0.5-3.4-0.2c-3.1,0.9-6.3,2.7-8.4,4.3
		l0.8,4.4C9.1,22.6,10,22,10.5,21.7z"/>
</g>
<g>
	<path class="st6" d="M43.6,8.3c4.6,0,6.9,2.5,6.9,7.5v0.1c0,5-2.3,7.5-6.9,7.5h-6.2V8.3H43.6z M40,20.8h4.2c1.2,0,2.1-0.4,2.7-1.2
		c0.6-0.8,0.9-2.1,0.9-3.8c0-3.2-1.2-4.9-3.5-4.9H40V20.8z"/>
	<path class="st6" d="M54.4,21.3l-0.8,2.2h-2.8l4.7-13.2c0.2-0.7,0.6-1.2,1.1-1.5c0.5-0.3,1.1-0.5,1.8-0.5s1.3,0.2,1.8,0.5
		s0.9,0.8,1.1,1.5l4.7,13.2h-2.8l-0.8-2.2H54.4z M58.4,11c-0.2,0-0.4,0.1-0.5,0.4l-2.6,7.2h6.3L59,11.4c-0.1-0.2-0.2-0.3-0.2-0.4
		C58.7,11,58.6,11,58.5,11H58.4z"/>
	<path class="st6" d="M71.2,23.5h-2.6V11h-3.7V8.3h9.9V11h-3.5V23.5z"/>
	<path class="st6" d="M77.3,21.3l-0.8,2.2h-2.8l4.7-13.2c0.2-0.7,0.6-1.2,1.1-1.5s1.1-0.5,1.8-0.5s1.3,0.2,1.8,0.5
		c0.5,0.3,0.9,0.8,1.1,1.5L89,23.5h-2.8l-0.8-2.2H77.3z M81.3,11c-0.2,0-0.4,0.1-0.5,0.4l-2.6,7.2h6.3l-2.6-7.2
		c-0.1-0.2-0.2-0.3-0.2-0.4S81.5,11,81.4,11H81.3z"/>
	<path class="st6" d="M103.1,19c0,1.5-0.4,2.6-1.3,3.3c-0.8,0.7-2,1.1-3.5,1.1h-7.8v-2.6h8.3c0.5,0,0.9-0.2,1.2-0.5
		c0.3-0.4,0.5-0.8,0.5-1.3c0-0.5-0.2-0.9-0.5-1.3c-0.3-0.4-0.7-0.5-1.2-0.5h-4.3c-0.9,0-1.6-0.1-2.2-0.4c-0.6-0.3-1.1-0.6-1.5-1
		c-0.4-0.4-0.6-0.9-0.8-1.4c-0.2-0.5-0.3-1-0.3-1.6c0-0.6,0.1-1.2,0.3-1.7c0.2-0.5,0.5-1,0.8-1.4s0.9-0.7,1.5-1
		c0.6-0.2,1.3-0.4,2.2-0.4h7.6V11h-8c-0.2,0-0.5,0-0.7,0.1c-0.2,0.1-0.4,0.2-0.5,0.4c-0.2,0.2-0.3,0.3-0.4,0.6
		c-0.1,0.2-0.1,0.4-0.1,0.7c0,0.5,0.2,0.9,0.5,1.3c0.3,0.3,0.7,0.5,1.2,0.5h4.2c1.5,0,2.6,0.4,3.5,1.1s1.3,1.8,1.3,3.3V19z"/>
	<path class="st6" d="M111,23.5h-2.6V11h-3.7V8.3h9.9V11H111V23.5z"/>
	<path class="st6" d="M128.9,17.7c0,0.9-0.1,1.7-0.4,2.4c-0.3,0.7-0.7,1.3-1.2,1.8c-0.5,0.5-1.2,0.9-2,1.2c-0.8,0.3-1.7,0.4-2.8,0.4
		c-1,0-2-0.1-2.8-0.4s-1.5-0.7-2-1.2c-0.5-0.5-1-1.1-1.2-1.8c-0.3-0.7-0.4-1.5-0.4-2.3V8.3h2.7v9.4c0,0.9,0.3,1.7,1,2.3
		c0.7,0.6,1.6,0.9,2.8,0.9h0.1c1.2,0,2.1-0.3,2.7-0.9c0.6-0.6,0.9-1.3,0.9-2.3V8.3h2.7V17.7z"/>
	<path class="st6" d="M137.4,8.3c4.6,0,6.9,2.5,6.9,7.5v0.1c0,5-2.3,7.5-6.9,7.5h-6.2V8.3H137.4z M133.8,20.8h4.2
		c1.2,0,2.1-0.4,2.7-1.2s0.9-2.1,0.9-3.8c0-3.2-1.2-4.9-3.5-4.9h-4.3V20.8z"/>
	<path class="st6" d="M146.2,8.3h2.7v15.2h-2.7V8.3z"/>
	<path class="st6" d="M158.8,8.3c4.6,0,6.9,2.5,6.9,7.5v0.1c0,5-2.3,7.6-6.9,7.6h-1.2c-4.6,0-6.9-2.5-6.9-7.6v-0.1
		c0-5,2.3-7.5,6.9-7.5H158.8z M157,11c-1.2,0-2.1,0.4-2.7,1.2s-0.9,2-0.9,3.8c0,3.3,1.2,4.9,3.6,4.9h2.6c2.4,0,3.6-1.6,3.6-4.9
		c0-1.7-0.3-3-0.9-3.8s-1.5-1.2-2.7-1.2H157z"/>
</g>
<g>
</g>
<g>
</g>
<g>
</g>
<g>
</g>
<g>
</g>
<g>
</g>
<g>
</g>
<g>
</g>
<g>
</g>
<g>
</g>
<g>
</g>
<g>
</g>
<g>
</g>
<g>
</g>
<g>
</g>
</svg>
